<?xml version="1.0" encoding="utf-8"?>
<!-- Generator: Adobe Illustrator 27.6.1, SVG Export Plug-In . SVG Version: 6.00 Build 0)  -->
<svg version="1.1" id="Layer_1" xmlns="http://www.w3.org/2000/svg" xmlns:xlink="http://www.w3.org/1999/xlink" x="0px" y="0px"
	 viewBox="0 0 250 150" style="enable-background:new 0 0 250 150;" xml:space="preserve">
<style type="text/css">
	.st0{fill:#33A4C0;}
	.st1{fill:#16586A;}
	.st2{font-family:'SnellRoundhand-Bold';}
	.st3{font-size:52.2431px;}
</style>
<g>
	<path class="st0" d="M44.2,59.13c0,0-2.88-3.93-3.49-8.99c0,0,8.29-2.97,15.19,0c0,0-1.13,4.45-6.29,8.99H44.2z"/>
	<path class="st0" d="M44.46,60.96h4.63c0,0-0.18,26.4-11.81,31.78c0,0-4.94-1.02-6.4-6.4C30.88,86.34,41.9,84.89,44.46,60.96z"/>
	<path class="st1" d="M17.42,71.67c0,0,6.83,5.15,9.08,5.18c0,0,1.05,14.42,7.4,16.83h-4.98c0,0-12.7-0.16-17.36-12.78
		C11.55,80.9,12.19,75.3,17.42,71.67z"/>
</g>
<text transform="matrix(1 0 0 1 51.8899 85.4976)" class="st1 st2 st3">ntervene</text>
</svg>
